<?xml version="1.0" encoding="utf-8"?>
<!-- Generator: Adobe Illustrator 23.0.1, SVG Export Plug-In . SVG Version: 6.00 Build 0)  -->
<svg version="1.1" id="Layer_1" xmlns="http://www.w3.org/2000/svg" xmlns:xlink="http://www.w3.org/1999/xlink" x="0px" y="0px"
	 viewBox="0 0 300.3 49.8" style="enable-background:new 0 0 300.3 49.8;" xml:space="preserve">
<style type="text/css">
	.st0{fill:#FACC15;}
</style>
<g>
	<polygon class="st0" points="26.2,37.4 10.9,48.4 16.8,30.6 1.5,19.5 20.4,19.5 26.2,1.6 32,19.5 50.8,19.5 35.6,30.6 41.4,48.4 	
		"/>
	<path class="st0" d="M26.2,3.2l5.2,16.1l0.2,0.7h0.7h16.9l-13.7,9.9L35,30.4l0.2,0.7l5.2,16.1l-13.7-9.9l-0.6-0.4l-0.6,0.4
		l-13.7,9.9l5.2-16.1l0.2-0.7l-0.6-0.4L3.1,20H20h0.7l0.2-0.7L26.2,3.2 M26.2,0L20,19H0l16.2,11.8l-6.2,19L26.2,38l16.2,11.8
		l-6.2-19L52.3,19h-20L26.2,0L26.2,0z"/>
</g>
<g>
	<polygon class="st0" points="274.2,37.4 258.9,48.4 264.8,30.6 249.5,19.5 268.4,19.5 274.2,1.6 280,19.5 298.8,19.5 283.6,30.6 
		289.4,48.4 	"/>
	<path class="st0" d="M274.2,3.2l5.2,16.1l0.2,0.7h0.7h16.9l-13.7,9.9l-0.6,0.4l0.2,0.7l5.2,16.1l-13.7-9.9l-0.6-0.4l-0.6,0.4
		l-13.7,9.9l5.2-16.1l0.2-0.7l-0.6-0.4L251.1,20H268h0.7l0.2-0.7L274.2,3.2 M274.2,0L268,19h-20l16.2,11.8l-6.2,19L274.2,38
		l16.2,11.8l-6.2-19L300.3,19h-20L274.2,0L274.2,0z"/>
</g>
<g>
	<polygon class="st0" points="213.2,37.4 197.9,48.4 203.8,30.6 188.5,19.5 207.4,19.5 213.2,1.6 219,19.5 237.8,19.5 222.6,30.6 
		228.4,48.4 	"/>
	<path class="st0" d="M213.2,3.2l5.2,16.1l0.2,0.7h0.7h16.9l-13.7,9.9l-0.6,0.4l0.2,0.7l5.2,16.1l-13.7-9.9l-0.6-0.4l-0.6,0.4
		l-13.7,9.9l5.2-16.1l0.2-0.7l-0.6-0.4L190.1,20H207h0.7l0.2-0.7L213.2,3.2 M213.2,0L207,19h-20l16.2,11.8l-6.2,19L213.2,38
		l16.2,11.8l-6.2-19L239.3,19h-20L213.2,0L213.2,0z"/>
</g>
<g>
	<polygon class="st0" points="147.2,37.4 131.9,48.4 137.8,30.6 122.5,19.5 141.4,19.5 147.2,1.6 153,19.5 171.8,19.5 156.6,30.6 
		162.4,48.4 	"/>
	<path class="st0" d="M147.2,3.2l5.2,16.1l0.2,0.7h0.7h16.9l-13.7,9.9l-0.6,0.4l0.2,0.7l5.2,16.1l-13.7-9.9l-0.6-0.4l-0.6,0.4
		l-13.7,9.9l5.2-16.1l0.2-0.7l-0.6-0.4L124.1,20H141h0.7l0.2-0.7L147.2,3.2 M147.2,0L141,19h-20l16.2,11.8l-6.2,19L147.2,38
		l16.2,11.8l-6.2-19L173.3,19h-20L147.2,0L147.2,0z"/>
</g>
<g>
	<polygon class="st0" points="85.2,37.4 69.9,48.4 75.8,30.6 60.5,19.5 79.4,19.5 85.2,1.6 91,19.5 109.8,19.5 94.6,30.6 
		100.4,48.4 	"/>
	<path class="st0" d="M85.2,3.2l5.2,16.1l0.2,0.7h0.7h16.9l-13.7,9.9L94,30.4l0.2,0.7l5.2,16.1l-13.7-9.9l-0.6-0.4l-0.6,0.4
		l-13.7,9.9l5.2-16.1l0.2-0.7l-0.6-0.4L62.1,20H79h0.7l0.2-0.7L85.2,3.2 M85.2,0L79,19H59l16.2,11.8l-6.2,19L85.2,38l16.2,11.8
		l-6.2-19L111.3,19h-20L85.2,0L85.2,0z"/>
</g>
</svg>
